<svg xmlns="http://www.w3.org/2000/svg" version="1.1" xmlns:xlink="http://www.w3.org/1999/xlink" xmlns:svgjs="http://svgjs.dev/svgjs" width="2000" height="2790" viewBox="0 0 2000 2790"><g transform="matrix(1,0,0,1,-2.131231381061866,1.129554655870379)"><svg viewBox="0 0 177 247" data-background-color="#ffffff" preserveAspectRatio="xMidYMid meet" height="2790" width="2000" xmlns="http://www.w3.org/2000/svg" xmlns:xlink="http://www.w3.org/1999/xlink"><g id="tight-bounds" transform="matrix(1,0,0,1,0.1886139772239801,-0.09999999999999432)"><svg viewBox="0 0 176.62277204555204 247.2" height="247.2" width="176.62277204555204"><g><svg viewBox="0 0 395.52 553.5670336709691" height="247.2" width="176.62277204555204"><g transform="matrix(1,0,0,1,0,395.51871068745317)"><svg viewBox="0 0 395.52 158.04832298351593" height="158.04832298351593" width="395.52"><g id="textblocktransform"><svg viewBox="0 0 395.52 158.04832298351593" height="158.04832298351593" width="395.52" id="textblock"><g><svg viewBox="0 0 395.52 91.57697205977908" height="91.57697205977908" width="395.52"><g transform="matrix(1,0,0,1,0,0)"><svg width="395.52" viewBox="1.07 -39.11 225.43 52.2" height="91.57697205977908" data-palette-color="#556970"><path d="M6.27-7.15L6.27-21.66 1.07-21.66 1.51-24.44Q3.44-24.93 4.6-25.54 5.76-26.15 6.53-27.04 7.3-27.93 7.87-29.21 8.45-30.49 9.2-32.32L9.2-32.32 12.04-32.32 12.04-25.88 21.34-25.88 20.29-21.66 12.21-21.66 12.21-8.33Q12.21-7.13 12.55-6.31 12.89-5.49 13.53-4.98 14.16-4.47 15.05-4.24 15.94-4 17.07-4L17.07-4Q18.14-4 19.2-4.2 20.26-4.39 21.22-4.76L21.22-4.76 21.22-1.78Q19.56-0.66 17.66-0.09 15.77 0.49 13.84 0.49L13.84 0.49Q10.16 0.49 8.22-1.51 6.27-3.52 6.27-7.15L6.27-7.15ZM27.9-8.62L27.9-25.88 33.81-25.88 33.81-9.55Q33.81-8.3 34.15-7.29 34.49-6.27 35.1-5.54 35.72-4.81 36.57-4.41 37.42-4 38.45-4L38.45-4Q39.33-4 40.17-4.3 41.01-4.59 41.79-5.07 42.58-5.54 43.28-6.16 43.99-6.79 44.63-7.47L44.63-7.47 44.63-25.88 50.53-25.88 50.53 0 45.75 0 44.87-4.37Q43.99-3.56 42.97-2.7 41.94-1.83 40.79-1.12 39.65-0.42 38.36 0.04 37.08 0.49 35.69 0.49L35.69 0.49Q34.1 0.49 32.69-0.15 31.27-0.78 30.21-1.95 29.15-3.13 28.53-4.81 27.9-6.49 27.9-8.62L27.9-8.62ZM77.39-5.32L77.39-2.37Q75.65-0.98 73.53-0.24 71.41 0.49 68.96 0.49L68.96 0.49Q66.23 0.49 64.03-0.43 61.84-1.34 60.3-2.97 58.76-4.59 57.93-6.85 57.1-9.11 57.1-11.82L57.1-11.82Q57.1-15.01 58.22-17.69 59.35-20.36 61.29-22.29 63.23-24.22 65.86-25.29 68.5-26.37 71.53-26.37L71.53-26.37Q72.19-26.37 72.94-26.31 73.7-26.25 74.49-26.12 75.29-26 76.06-25.79 76.83-25.59 77.49-25.29L77.49-25.29 76.44-20.75 75.92-20.51Q75.48-20.83 74.89-21.13 74.29-21.44 73.6-21.66 72.92-21.88 72.19-22.01 71.45-22.14 70.75-22.14L70.75-22.14Q69.18-22.14 67.83-21.53 66.47-20.92 65.46-19.75 64.45-18.58 63.86-16.88 63.28-15.19 63.28-13.04L63.28-13.04Q63.28-10.79 63.91-9.11 64.55-7.42 65.67-6.29 66.79-5.15 68.33-4.58 69.87-4 71.67-4L71.67-4Q72.8-4 74.24-4.27 75.68-4.54 77.39-5.32L77.39-5.32ZM84.1 0L84.1-39.11 90.01-39.11 90.01 0 84.1 0ZM108.24 0L101.09 0 91.45-13.65 101.51-25.81 107.49-25.81 97.33-14.38 108.24 0ZM111.86-1.22L112.91-5.66 113.34-5.93Q114.3-5.42 115.33-5 116.37-4.59 117.4-4.31 118.42-4.03 119.4-3.88 120.38-3.74 121.23-3.74L121.23-3.74Q123.45-3.74 124.71-4.66 125.97-5.59 125.97-7.03L125.97-7.03Q125.97-8.01 125.39-8.64 124.82-9.28 123.88-9.73 122.94-10.18 121.74-10.52 120.55-10.86 119.29-11.24 118.03-11.62 116.84-12.11 115.64-12.6 114.7-13.35 113.76-14.11 113.19-15.2 112.61-16.28 112.61-17.87L112.61-17.87Q112.61-19.65 113.38-21.22 114.15-22.78 115.58-23.91 117.01-25.05 119.05-25.71 121.08-26.37 123.62-26.37L123.62-26.37Q124.26-26.37 125.1-26.32 125.94-26.27 126.86-26.16 127.77-26.05 128.7-25.88 129.63-25.71 130.43-25.44L130.43-25.44 129.36-21.07 128.82-20.75Q128.09-21.12 127.25-21.39 126.41-21.66 125.56-21.81 124.72-21.97 123.93-22.06 123.13-22.14 122.52-22.14L122.52-22.14Q120.38-22.14 119.17-21.29 117.96-20.43 117.96-18.99L117.96-18.99Q117.96-17.99 118.54-17.35 119.13-16.7 120.07-16.25 121.01-15.8 122.23-15.47 123.45-15.14 124.71-14.76 125.97-14.38 127.19-13.89 128.41-13.4 129.35-12.65 130.29-11.89 130.87-10.79 131.46-9.69 131.46-8.08L131.46-8.08Q131.46-6.27 130.68-4.7 129.9-3.13 128.46-1.98 127.02-0.83 124.99-0.17 122.96 0.49 120.5 0.49L120.5 0.49Q118.47 0.49 116.2 0.05 113.93-0.39 111.86-1.22L111.86-1.22ZM137.98 0L137.98-39.11 143.88-39.11 143.88-21.7Q144.79-22.51 145.87-23.33 146.96-24.15 148.17-24.83 149.38-25.51 150.72-25.94 152.06-26.37 153.5-26.37L153.5-26.37Q155.26-26.37 156.7-25.71 158.14-25.05 159.17-23.85 160.19-22.66 160.75-20.97 161.32-19.29 161.32-17.24L161.32-17.24 161.32 0 155.38 0 155.38-16.58Q155.38-17.9 155.02-18.88 154.65-19.87 154.02-20.53 153.38-21.19 152.49-21.52 151.6-21.85 150.57-21.85L150.57-21.85Q148.77-21.85 147.16-20.92 145.54-20 143.88-18.48L143.88-18.48 143.88 0 137.98 0ZM180.4 0.49L180.4 0.49Q177.35 0.49 175.02-0.54 172.69-1.56 171.1-3.31 169.52-5.05 168.7-7.35 167.88-9.64 167.88-12.21L167.88-12.21Q167.88-15.16 168.93-17.74 169.98-20.31 171.87-22.23 173.76-24.15 176.38-25.26 178.99-26.37 182.11-26.37L182.11-26.37Q185.17-26.37 187.51-25.34 189.85-24.32 191.44-22.56 193.03-20.8 193.84-18.49 194.66-16.19 194.66-13.62L194.66-13.62Q194.66-10.64 193.6-8.07 192.54-5.49 190.63-3.59 188.73-1.68 186.12-0.6 183.51 0.49 180.4 0.49ZM181.43-3.74L181.43-3.74Q182.99-3.74 184.29-4.38 185.58-5.03 186.51-6.19 187.44-7.35 187.95-8.96 188.46-10.57 188.46-12.52L188.46-12.52Q188.46-14.43 187.96-16.16 187.46-17.9 186.51-19.23 185.56-20.56 184.19-21.35 182.82-22.14 181.09-22.14L181.09-22.14Q179.5-22.14 178.21-21.48 176.91-20.83 176-19.65 175.08-18.48 174.57-16.86 174.06-15.23 174.06-13.31L174.06-13.31Q174.06-11.38 174.56-9.64 175.06-7.91 176.01-6.59 176.96-5.27 178.33-4.5 179.7-3.74 181.43-3.74ZM207.16-18.46L207.16-4.76Q207.77-4.47 208.47-4.27 209.16-4.08 209.82-3.96 210.48-3.83 211.09-3.78 211.7-3.74 212.14-3.74L212.14-3.74Q214.02-3.74 215.53-4.48 217.05-5.22 218.12-6.51 219.2-7.79 219.77-9.5 220.34-11.21 220.34-13.16L220.34-13.16Q220.34-14.99 219.87-16.58 219.39-18.16 218.54-19.34 217.68-20.51 216.46-21.18 215.24-21.85 213.78-21.85L213.78-21.85Q212.02-21.85 210.32-20.91 208.63-19.97 207.16-18.46L207.16-18.46ZM205.99-25.88L206.87-21.53Q207.75-22.36 208.77-23.22 209.8-24.07 210.98-24.77 212.17-25.46 213.52-25.92 214.88-26.37 216.41-26.37L216.41-26.37Q218.78-26.37 220.65-25.33 222.52-24.29 223.81-22.57 225.1-20.85 225.8-18.62 226.5-16.38 226.5-14.01L226.5-14.01Q226.5-10.89 225.35-8.23 224.2-5.57 222.22-3.63 220.25-1.68 217.59-0.6 214.92 0.49 211.92 0.49L211.92 0.49Q211.34 0.49 210.69 0.45 210.04 0.42 209.42 0.34 208.8 0.27 208.21 0.16 207.62 0.05 207.16-0.1L207.16-0.1 207.16 13.09 201.25 13.09 201.25-25.88 205.99-25.88Z" opacity="1" transform="matrix(1,0,0,1,0,0)" fill="#556970" class="wordmark-text-0" data-fill-palette-color="primary" id="text-0"></path></svg></g></svg></g><g transform="matrix(1,0,0,1,75.54432,113.1960973157635)"><svg viewBox="0 0 244.43135999999998 44.852225667752435" height="44.852225667752435" width="244.43135999999998"><g transform="matrix(1,0,0,1,0,0)"><svg width="244.43135999999998" viewBox="1.71 -32.3 247.32 45.39" height="44.852225667752435" data-palette-color="#556970"><path d="M1.71-25.88L6.84-25.88 11.57-7.76 12.3-3.66 12.79-3.66 13.62-7.71 18.8-25.1 24.1-25.1 29.22-7.76 30.1-3.66 30.59-3.66 31.37-7.71 36.16-25.88 40.84-25.88 32.64 0 27.54 0 22.61-16.02 21.48-20.51 21-20.51 19.87-16.02 14.84 0 9.77 0 1.71-25.88ZM60.57-3.86L60.57-3.86Q59.96-3.34 59.09-2.6 58.23-1.86 57.14-1.17 56.05-0.49 54.77 0 53.49 0.49 52.05 0.49L52.05 0.49Q50.75 0.49 49.52 0.04 48.29-0.42 47.34-1.31 46.38-2.2 45.81-3.52 45.24-4.83 45.24-6.54L45.24-6.54Q45.24-7.59 45.49-8.67 45.75-9.74 46.36-10.73 46.97-11.72 47.96-12.59 48.95-13.45 50.4-14.1 51.85-14.75 53.83-15.11 55.81-15.48 58.37-15.48L58.37-15.48 60.57-15.48 60.57-17.72Q60.57-18.85 60.18-19.75 59.79-20.65 59.09-21.3 58.4-21.95 57.43-22.3 56.47-22.66 55.3-22.66L55.3-22.66Q54.42-22.66 53.43-22.46 52.44-22.27 51.45-21.9 50.46-21.53 49.56-21.04 48.65-20.56 47.97-19.97L47.97-19.97 47.53-20.21 46.56-23.78Q47.97-24.56 49.29-25.06 50.61-25.56 51.82-25.85 53.02-26.15 54.12-26.26 55.22-26.37 56.22-26.37L56.22-26.37Q60.79-26.37 63-24.48 65.21-22.58 65.21-18.8L65.21-18.8 65.21-6.05Q65.21-5.74 65.26-5.29 65.31-4.83 65.49-4.42 65.67-4 66.03-3.71 66.38-3.42 66.99-3.42L66.99-3.42Q67.33-3.42 67.89-3.53 68.45-3.64 69.02-3.91L69.02-3.91 69.02-1.32Q67.84-0.51 66.66-0.01 65.48 0.49 64.38 0.49L64.38 0.49Q63.38 0.49 62.73 0.09 62.08-0.32 61.66-0.95 61.23-1.59 60.98-2.36 60.74-3.13 60.57-3.86ZM60.57-6.98L60.57-12.65 58.71-12.65Q55.86-12.65 54.16-12.24 52.46-11.84 51.57-11.17 50.68-10.5 50.4-9.62 50.12-8.74 50.12-7.79L50.12-7.79Q50.12-6.76 50.41-5.96 50.71-5.15 51.23-4.58 51.76-4 52.49-3.71 53.22-3.42 54.07-3.42L54.07-3.42Q54.73-3.42 55.43-3.58 56.13-3.74 56.92-4.14 57.71-4.54 58.6-5.22 59.49-5.91 60.57-6.98L60.57-6.98ZM80.49 0L70.82-25.88 76.04-25.88 81.71-8.4 82.88-3.66 83.37-3.66 84.54-8.4 90.2-25.88 94.99-25.88 80.44 13.09 75.95 13.09 81.37 0 80.49 0ZM114.05-6.49L114.05-22.17 108.83-22.17 109.22-24.56Q111.12-24.95 112.27-25.55 113.42-26.15 114.16-27.05 114.91-27.95 115.41-29.24 115.91-30.52 116.54-32.3L116.54-32.3 118.69-32.3 118.69-25.88 128.07-25.88 127.09-22.17 118.69-22.17 118.69-7.71Q118.69-6.54 119.05-5.73 119.4-4.91 120.03-4.39 120.67-3.88 121.57-3.65 122.48-3.42 123.57-3.42L123.57-3.42Q124.7-3.42 125.81-3.63 126.92-3.83 127.92-4.2L127.92-4.2 127.92-1.56Q126.38-0.56 124.68-0.04 122.99 0.49 121.23 0.49L121.23 0.49Q119.59 0.49 118.28 0.02 116.96-0.44 116.02-1.32 115.08-2.2 114.57-3.5 114.05-4.81 114.05-6.49L114.05-6.49ZM144.93 0.49L144.93 0.49Q142.05 0.49 139.81-0.54 137.56-1.56 136.01-3.3 134.46-5.03 133.64-7.34 132.82-9.64 132.82-12.21L132.82-12.21Q132.82-15.14 133.86-17.71 134.9-20.29 136.74-22.22 138.59-24.15 141.13-25.26 143.66-26.37 146.64-26.37L146.64-26.37Q149.55-26.37 151.82-25.33 154.09-24.29 155.64-22.53 157.19-20.78 158-18.47 158.8-16.16 158.8-13.62L158.8-13.62Q158.8-10.67 157.75-8.09 156.7-5.52 154.85-3.61 152.99-1.71 150.45-0.61 147.91 0.49 144.93 0.49ZM145.96-3.22L145.96-3.22Q147.74-3.22 149.19-3.94 150.65-4.66 151.68-5.91 152.72-7.15 153.3-8.85 153.87-10.55 153.87-12.5L153.87-12.5Q153.87-14.43 153.31-16.25 152.75-18.07 151.68-19.49 150.62-20.92 149.08-21.79 147.55-22.66 145.62-22.66L145.62-22.66Q143.84-22.66 142.38-21.94 140.93-21.22 139.89-19.96 138.85-18.7 138.28-16.99 137.71-15.28 137.71-13.33L137.71-13.33Q137.71-11.4 138.27-9.58 138.83-7.76 139.89-6.35 140.95-4.93 142.48-4.08 144.01-3.22 145.96-3.22ZM197.22-4.83L197.22-2.2Q196.3-1.54 195.09-1.04 193.88-0.54 192.59-0.2 191.29 0.15 189.98 0.32 188.68 0.49 187.56 0.49L187.56 0.49Q185.07 0.49 182.82-0.34 180.57-1.17 178.89-2.78 177.2-4.39 176.2-6.77 175.2-9.16 175.2-12.26L175.2-12.26Q175.2-15.45 176.26-18.07 177.33-20.68 179.11-22.52 180.89-24.37 183.22-25.37 185.55-26.37 188.12-26.37L188.12-26.37Q190.19-26.37 191.99-25.67 193.78-24.98 195.11-23.58 196.44-22.19 197.2-20.1 197.96-18.02 197.96-15.23L197.96-15.23Q197.96-14.67 197.91-13.89 197.86-13.11 197.71-12.26L197.71-12.26 180.04-12.26Q180.04-10.16 180.78-8.51 181.53-6.86 182.88-5.73 184.24-4.59 186.12-4 188-3.42 190.27-3.42L190.27-3.42Q190.83-3.42 191.63-3.47 192.44-3.52 193.37-3.66 194.29-3.81 195.3-4.09 196.3-4.37 197.22-4.83L197.22-4.83ZM180.04-15.14L193.56-15.14Q193.56-16.97 193.05-18.37 192.54-19.78 191.66-20.73 190.78-21.68 189.62-22.17 188.46-22.66 187.14-22.66L187.14-22.66Q185.68-22.66 184.38-22.06 183.09-21.46 182.12-20.43 181.16-19.41 180.6-18.04 180.04-16.67 180.04-15.14L180.04-15.14ZM219.15-3.86L219.15-3.86Q218.53-3.34 217.67-2.6 216.8-1.86 215.71-1.17 214.63-0.49 213.35 0 212.06 0.49 210.62 0.49L210.62 0.49Q209.33 0.49 208.1 0.04 206.86-0.42 205.91-1.31 204.96-2.2 204.39-3.52 203.81-4.83 203.81-6.54L203.81-6.54Q203.81-7.59 204.07-8.67 204.33-9.74 204.94-10.73 205.55-11.72 206.54-12.59 207.52-13.45 208.98-14.1 210.43-14.75 212.41-15.11 214.38-15.48 216.95-15.48L216.95-15.48 219.15-15.48 219.15-17.72Q219.15-18.85 218.75-19.75 218.36-20.65 217.67-21.3 216.97-21.95 216.01-22.3 215.04-22.66 213.87-22.66L213.87-22.66Q212.99-22.66 212-22.46 211.02-22.27 210.03-21.9 209.04-21.53 208.13-21.04 207.23-20.56 206.55-19.97L206.55-19.97 206.11-20.21 205.13-23.78Q206.55-24.56 207.87-25.06 209.18-25.56 210.39-25.85 211.6-26.15 212.7-26.26 213.8-26.37 214.8-26.37L214.8-26.37Q219.36-26.37 221.57-24.48 223.78-22.58 223.78-18.8L223.78-18.8 223.78-6.05Q223.78-5.74 223.83-5.29 223.88-4.83 224.06-4.42 224.25-4 224.6-3.71 224.96-3.42 225.57-3.42L225.57-3.42Q225.91-3.42 226.47-3.53 227.03-3.64 227.59-3.91L227.59-3.91 227.59-1.32Q226.42-0.51 225.24-0.01 224.05 0.49 222.95 0.49L222.95 0.49Q221.95 0.49 221.31 0.09 220.66-0.32 220.23-0.95 219.8-1.59 219.56-2.36 219.32-3.13 219.15-3.86ZM219.15-6.98L219.15-12.65 217.29-12.65Q214.43-12.65 212.74-12.24 211.04-11.84 210.15-11.17 209.26-10.5 208.98-9.62 208.7-8.74 208.7-7.79L208.7-7.79Q208.7-6.76 208.99-5.96 209.28-5.15 209.81-4.58 210.33-4 211.06-3.71 211.8-3.42 212.65-3.42L212.65-3.42Q213.31-3.42 214.01-3.58 214.7-3.74 215.5-4.14 216.29-4.54 217.18-5.22 218.07-5.91 219.15-6.98L219.15-6.98ZM235.01-6.49L235.01-22.17 229.79-22.17 230.18-24.56Q232.08-24.95 233.23-25.55 234.38-26.15 235.12-27.05 235.87-27.95 236.37-29.24 236.87-30.52 237.5-32.3L237.5-32.3 239.65-32.3 239.65-25.88 249.03-25.88 248.05-22.17 239.65-22.17 239.65-7.71Q239.65-6.54 240-5.73 240.36-4.91 240.99-4.39 241.63-3.88 242.53-3.65 243.43-3.42 244.53-3.42L244.53-3.42Q245.66-3.42 246.77-3.63 247.88-3.83 248.88-4.2L248.88-4.2 248.88-1.56Q247.34-0.56 245.64-0.04 243.95 0.49 242.19 0.49L242.19 0.49Q240.55 0.49 239.24 0.02 237.92-0.44 236.98-1.32 236.04-2.2 235.52-3.5 235.01-4.81 235.01-6.49L235.01-6.49Z" opacity="1" transform="matrix(1,0,0,1,0,0)" fill="#556970" class="slogan-text-1" data-fill-palette-color="secondary" id="text-1"></path></svg></g></svg></g></svg></g></svg></g><g transform="matrix(1,0,0,1,21.619769912257823,0)"><svg viewBox="0 0 352.28046017548434 352.28046017548434" height="352.28046017548434" width="352.28046017548434"><g><svg></svg></g><g id="icon-0"><svg viewBox="0 0 352.28046017548434 352.28046017548434" height="352.28046017548434" width="352.28046017548434"><g><path d="M0 176.14c0-97.28 78.861-176.14 176.14-176.14 97.28 0 176.14 78.861 176.14 176.14 0 97.28-78.861 176.14-176.14 176.14-97.28 0-176.14-78.861-176.14-176.14zM176.14 344.022c92.719 0 167.882-75.163 167.882-167.882 0-92.719-75.163-167.882-167.882-167.881-92.719 0-167.882 75.163-167.881 167.881 0 92.719 75.163 167.882 167.881 167.882z" data-fill-palette-color="accent" fill="#aba944" stroke="transparent"></path><ellipse rx="174.37882778686475" ry="174.37882778686475" cx="176.14023008774217" cy="176.14023008774217" fill="#aba944" stroke="transparent" stroke-width="0" fill-opacity="1" data-fill-palette-color="accent"></ellipse></g><g transform="matrix(1,0,0,1,80.54373916101126,91.6575471100522)"><svg viewBox="0 0 191.19298185346182 168.96536595537992" height="168.96536595537992" width="191.19298185346182"><g><svg xmlns="http://www.w3.org/2000/svg" xmlns:xlink="http://www.w3.org/1999/xlink" version="1.1" x="0" y="0" viewBox="9.22 11.140000000000002 85.13 75.233" enable-background="new 0 0 100 100" xml:space="preserve" height="168.96536595537992" width="191.19298185346182" class="icon-cg-0" data-fill-palette-color="quaternary" id="cg-0"><g fill="#ffffff" data-fill-palette-color="quaternary"><g fill="#ffffff" data-fill-palette-color="quaternary"><path d="M70.611 34.62l-4.199-21.618h6.708l6.993 21.618H70.611zM47.05 34.62l1.389-21.618h6.446l1.327 21.618H47.05zM23.523 34.62l6.919-21.618h6.751L32.911 34.62H23.523zM22.957 65.521V39.557c0.93 1.638 3.045 2.978 5.306 2.978 2.572 0 4.634-1.735 5.849-3.668 1.213 1.933 3.308 3.668 5.881 3.668 2.572 0 4.684-1.735 5.896-3.668 1.213 1.933 3.332 3.668 5.906 3.668 2.572 0 4.696-1.735 5.91-3.668 1.212 1.933 3.337 3.668 5.908 3.668 2.574 0 4.699-1.735 5.914-3.668 1.213 1.933 3.209 3.668 5.783 3.668 2.262 0 4.373-1.34 5.303-2.978v25.964H22.957L22.957 65.521zM94.25 34.62c0.01 0 0.02-0.23-0.02-0.36-0.061-0.19-0.181-0.32-0.32-0.44l-9.73-21.9c-0.14-0.46-0.58-0.78-1.069-0.78H20.46c-0.49 0-0.92 0.33-1.07 0.8L9.8 33.74c-0.22 0.15-0.4 0.33-0.48 0.6-0.03 0.11-0.01 0.28-0.01 0.28H9.22l0.09 1.25c0.2 2.63 3.13 6.64 7.04 6.64 0.67 0 1.03-0.1 1.96 2.69l0.065 41.173c1.78 0 27.875-0.043 27.875-0.043v-9.95c0-3.25 2.63-5.88 5.87-5.88 1.62 0 3.1 0.66 4.16 1.72C57.34 73.28 58 74.76 58 76.38v9.95c0 0 24.105-0.079 27.125-0.079L85.27 45.2c0.931-2.79 1.28-2.67 1.95-2.67 3.91 0 6.82-4.03 7.021-6.66l0.109-1.25H94.25z" fill="#ffffff" data-fill-palette-color="quaternary"></path></g></g><rect x="29.5" y="46.5" width="13.5" height="12.75" fill="#ffffff" data-fill-palette-color="quaternary"></rect><rect x="45.375" y="46.5" width="13.5" height="12.75" fill="#ffffff" data-fill-palette-color="quaternary"></rect><rect x="61.25" y="46.5" width="13.5" height="12.75" fill="#ffffff" data-fill-palette-color="quaternary"></rect></svg></g></svg></g></svg></g></svg></g><g></g></svg></g><defs></defs></svg><rect width="176.62277204555204" height="247.2" fill="none" stroke="none" visibility="hidden"></rect></g></svg></g></svg>